<?xml version="1.0" encoding="utf-8"?>
<?xml-stylesheet type="text/xsl" href="rss1.xsl"?>
<rss version="2.0" xmlns:atom="http://www.w3.org/2005/Atom" xmlns:content="http://purl.org/rss/1.0/modules/content/" xmlns:dc="http://purl.org/dc/elements/1.1/" xmlns:media="http://search.yahoo.com/mrss/">
<channel>
 <title>Getty</title>
 <link>http://www.gettyimg.com/</link>
 <atom:link href="http://www.gettyimg.com/" rel="self" type="application/rss+xml" />

 
                <item>
                <title><![CDATA[【YOUTUBE】WEB-RiP - Charli XCX - 360 [2160p VP9]]]></title>
                <link><![CDATA[https://sharemania.us/threads/charli-xcx-360-2160p-vp9.244032/]]></link>
                <description><![CDATA[<article>
<blockquote class="messageText SelectQuoteContainer ugc baseHtml">
<div style="text-align: center"><img src="https://img.youtube.com/vi/WJW-VvmRKsE/maxresdefault.jpg" class="bbCodeImage LbImage" alt="[​IMG]" data-url="https://img.youtube.com/vi/WJW-VvmRKsE/maxresdefault.jpg" style=""><br>
​</div>
<div class="bbCodeBlock bbCodeCode">
<div class="type">Code:</div>
<pre>General
Complete name                            : Charli XCX - 360 (Official Video) [WJW-VvmRKsE].mp4
Format                                   : MPEG-4
Format profile                           : Base Media
Codec ID                                 : isom (isom/iso2/mp41)
File size                                : 405 MiB
Duration                                 : 4 min 24 s
Overall bit rate                         : 12.8 Mb/s
Frame rate                               : 23.976 FPS
Writing application                      : Lavf60.16.100

Video
ID                                       : 1
Format                                   : VP9
Codec ID                                 : vp09
Duration                                 : 4 min 24 s
Bit rate                                 : 12.7 Mb/s
Width                                    : 2 880 pixels
Height                                   : 2 160 pixels
Display aspect ratio                     : 4:3
Frame rate mode                          : Variable
Frame rate                               : 23.976 FPS
Minimum frame rate                       : 23.256 FPS
Maximum frame rate                       : 24.390 FPS
Color space                              : YUV
Chroma subsampling                       : 4:2:0
Bits/(Pixel*Frame)                       : 0.085
Stream size                              : 400 MiB (99%)
Title                                    : ISO Media file produced by Google Inc. Created on: 05/09/2024.
Color range                              : Limited
Color primaries                          : BT.709
Transfer characteristics                 : BT.709
Matrix coefficients                      : BT.709

Audio
ID                                       : 2
Format                                   : AAC LC
Format/Info                              : Advanced Audio Codec Low Complexity
Codec ID                                 : 2 / 40 / mp4a-40-2
Duration                                 : 4 min 24 s
Bit rate mode                            : Constant
Bit rate                                 : 128 kb/s
Channel(s)                               : 2 channels
Channel layout                           : L R
Sampling rate                            : 44.1 kHz
Frame rate                               : 43.066 FPS (1024 SPF)
Compression mode                         : Lossy
Stream size                              : 4.03 MiB (1%)
Title                                    : ISO Media file produced by Google Inc.
Language                                 : English
Default                                  : Yes
Alternate group                          : 1</pre>
</div><div style="text-align: center"><br>
<div class="bbCodeBlock bbCodeVfcHH HiddenContent">
<div class="attribution type">Hidden Content:</div>
<blockquote>You must reply before you can see the hidden data contained here.</blockquote>
</div></div>
<div class="messageTextEndMarker">&nbsp;</div>
</blockquote>
</article>]]></description>
                <author><![CDATA[aove]]></author>
                </item>

                </channel></rss>